<svg width="60" height="59" viewBox="0 0 60 59" fill="none" xmlns="http://www.w3.org/2000/svg">
<path d="M25.1115 4.76401C26.2425 -0.502907 33.7575 -0.502897 34.8885 4.76402L37.3465 16.2097C37.8821 18.7039 40.2096 20.3949 42.7473 20.1336L54.3923 18.9343C59.751 18.3825 62.0732 25.5296 57.4136 28.2329L47.2876 34.1075C45.081 35.3876 44.192 38.1237 45.2247 40.4564L49.9638 51.161C52.1446 56.0868 46.0649 60.504 42.054 56.9078L33.3378 49.0928C31.4385 47.3897 28.5615 47.3897 26.6621 49.0928L17.946 56.9078C13.9351 60.504 7.85541 56.0868 10.0362 51.1609L14.7753 40.4564C15.808 38.1237 14.919 35.3876 12.7124 34.1075L2.5864 28.2329C-2.07322 25.5296 0.249039 18.3825 5.6077 18.9343L17.2527 20.1336C19.7904 20.3949 22.1179 18.7039 22.6535 16.2097L25.1115 4.76401Z" fill="#FAFF00"/>
</svg>